<svg xmlns="http://www.w3.org/2000/svg" width="357" height="48" fill="none"><path fill="#fff" d="M280.9 40.1h5.6V8.6H281V20c-2.1-2-4.5-3.1-7.2-3.1-5.9 0-10.7 4.9-10.7 12 0 7 5 11.9 10.8 11.9 3 0 5-1 7-3v2.4Zm-6-18c3.6 0 6.2 2.6 6.2 6.6 0 4.1-2.7 6.8-6.2 6.8-3.6 0-6.1-2.9-6.1-6.8 0-3.7 2.3-6.7 6-6.7Zm34.1 18h5.8V17.4H309v2.5a10 10 0 0 0-7.2-3.1c-5.9 0-10.6 4.9-10.6 12 0 7 5 11.9 10.8 11.9 2.8 0 5-1 7-3v2.4Zm-5.9-18c3.6 0 6.2 2.6 6.2 6.6 0 4.1-2.7 6.8-6.2 6.8-3.6 0-6.1-2.9-6.1-6.8 0-3.7 2.3-6.7 6.1-6.7Zm18.1-4.7h-3v4.9h3V40h5.7V22.3h3.4v-4.9h-3.4V9h-5.7v8.4Zm28.6 16a7.3 7.3 0 0 1-5.6 2.3c-3.3 0-5.8-2-6.4-5.3h18.3v-1.3c0-7.2-4.8-12.3-12-12.3-7.3 0-11.8 5.7-11.8 12 0 6.6 4.7 11.9 11.9 11.9 4.8 0 8-1.5 10.4-5l-4.8-2.3ZM338.1 26a6.2 6.2 0 0 1 6-4.3c3.1 0 5.6 1.7 6.3 4.3h-12.3Z"/><path fill="#fff" fill-opacity=".7" d="M198.8 40.1h5.6V17.4h-5.6v2.5c-2.1-2-4.5-3.1-7.2-3.1-5.9 0-10.7 4.9-10.7 12 0 7 5 11.9 10.8 11.9 2.9 0 5-1 7-3v2.4Zm-6-18c3.6 0 6.2 2.6 6.2 6.6 0 4.1-2.7 6.8-6.2 6.8-3.6 0-6.2-2.9-6.2-6.8 0-3.7 2.4-6.7 6.2-6.7Zm23.1-4.7h-5.7v22.7h5.7v-9.7c0-2.3 0-4.4 1-6.2a4.5 4.5 0 0 1 4-2.2c3.4 0 3.8 2.9 3.8 7.4V40h5.7V24.6c0-4.9-3.6-7.8-7.8-7.8-2.5 0-4.6 1-6.7 3v-2.4Zm36.7 22.7h5.7V8.6h-5.7V20c-2-2-4.4-3.1-7.1-3.1-6 0-10.7 4.9-10.7 12 0 7 5 11.9 10.8 11.9 2.9 0 5-1 7-3v2.4Zm-6-18c3.6 0 6.3 2.6 6.3 6.6 0 4.1-2.8 6.8-6.3 6.8s-6-2.9-6-6.8c0-3.7 2.3-6.7 6-6.7Z"/><path fill="#fff" d="M92 17.4h-3v4.9h3V40h5.7V22.3h3.3v-4.9h-3.3V9H92v8.4Zm11.5 22.7h5.7V17.4h-5.7v22.7Zm2.9-32c-2 0-3.7 1.4-3.7 3.4s1.6 4 3.7 4c2 0 3.6-1.7 3.6-3.7S108.4 8 106.4 8Zm28.2 20.8c0-4.7 2.1-6.9 5-6.9 2.5 0 3.9 1.9 3.9 5.6V40h5.6V26.8c0-3-.1-5.5-1.6-7.3a7.7 7.7 0 0 0-6.1-2.7c-3.4 0-5.5 1.4-7.6 4a7.1 7.1 0 0 0-6.6-4A9.5 9.5 0 0 0 120 20v-2.6h-5.7v22.7h5.7V29c0-4.7 2-7 4.8-7 3.2 0 4 2.7 4 7.1v11h5.7V29Zm36.5 4.5a7.3 7.3 0 0 1-5.6 2.3c-3.3 0-5.9-2-6.4-5.3h18.3v-1.3c0-7.2-4.8-12.3-12-12.3-7.3 0-11.8 5.7-11.8 12 0 6.6 4.6 11.9 11.9 11.9 4.7 0 8-1.5 10.4-5l-4.8-2.3ZM159.3 26a6.2 6.2 0 0 1 6.2-4.3c3 0 5.4 1.7 6.2 4.3h-12.4Z"/><path fill="#1F9DD8" fill-rule="evenodd" d="m18.2 31.7-1.8 5.6a1.8 1.8 0 0 1-2.3 1.2L2.4 34.7a1.8 1.8 0 0 1-1-2.3L3 26.8a1.8 1.8 0 0 1 2.3-1.2L17 29.4a1.8 1.8 0 0 1 1 2.3Z" clip-rule="evenodd"/><path fill="#78B942" fill-rule="evenodd" d="m28.8 20.1-4.7 3.4a1.8 1.8 0 0 1-2.5-.3l-7.2-10a1.8 1.8 0 0 1 .4-2.5l4.7-3.4a1.8 1.8 0 0 1 2.5.4l7.3 10a1.8 1.8 0 0 1-.5 2.4Z" clip-rule="evenodd"/><path fill="#FFC807" fill-rule="evenodd" d="M44.3 17h-5.8a1.8 1.8 0 0 1-1.9-1.8V3a1.8 1.8 0 0 1 1.9-1.7h5.8A1.8 1.8 0 0 1 46 2.9v12.3a1.8 1.8 0 0 1-1.8 1.8Z" clip-rule="evenodd"/><path fill="#EA7723" fill-rule="evenodd" d="M58.6 23.5 54 20.1a1.8 1.8 0 0 1-.4-2.5l7.2-10a1.8 1.8 0 0 1 2.5-.3l4.7 3.4a1.8 1.8 0 0 1 .5 2.5l-7.3 10a1.8 1.8 0 0 1-2.5.3Z" clip-rule="evenodd"/><path fill="#EC1C66" fill-rule="evenodd" d="m66.4 37.3-1.8-5.6a1.8 1.8 0 0 1 1-2.3l11.8-3.8a1.8 1.8 0 0 1 2.2 1.2l1.8 5.6a1.8 1.8 0 0 1-1 2.3l-11.8 3.8a1.8 1.8 0 0 1-2.2-1.2Z" clip-rule="evenodd"/><path fill="#fff" fill-rule="evenodd" d="M28.1 28.7c1.2-1 3-.8 4 .4l9.3 11 5-6.2a2.8 2.8 0 1 1 4.5 3.6l-7.3 8.8a2.8 2.8 0 0 1-4.4 0L27.8 32.7c-1-1.2-.9-3 .3-4Z" clip-rule="evenodd"/></svg>