<svg width="357" height="48" viewBox="0 0 357 48" fill="none" xmlns="http://www.w3.org/2000/svg">
<path d="M280.854 39.8551H286.542V8.38123H280.854V19.628C278.801 17.5754 276.449 16.5491 273.712 16.5491C267.811 16.5491 263.022 21.4241 263.022 28.5228C263.022 35.4933 268.068 40.4538 273.841 40.4538C276.706 40.4538 278.844 39.4275 280.854 37.4604V39.8551ZM274.867 21.7662C278.459 21.7662 281.111 24.4603 281.111 28.4373C281.111 32.5854 278.374 35.2367 274.867 35.2367C271.318 35.2367 268.752 32.3715 268.752 28.4801C268.752 24.7596 271.104 21.7662 274.867 21.7662Z" fill="#424242"/>
<path d="M309.085 39.8551H314.772V17.1477H309.085V19.628C307.032 17.5754 304.68 16.5491 301.943 16.5491C296.042 16.5491 291.252 21.4241 291.252 28.5228C291.252 35.4933 296.298 40.4538 302.071 40.4538C304.936 40.4538 307.075 39.4275 309.085 37.4604V39.8551ZM303.098 21.7662C306.69 21.7662 309.341 24.4603 309.341 28.4373C309.341 32.5854 306.604 35.2367 303.098 35.2367C299.548 35.2367 296.982 32.3715 296.982 28.4801C296.982 24.7596 299.334 21.7662 303.098 21.7662Z" fill="#424242"/>
<path d="M321.193 17.1477H318.285V22.0228H321.193V39.8551H326.881V22.0228H330.259V17.1477H326.881V8.7661H321.193V17.1477Z" fill="#424242"/>
<path d="M349.836 33.184C348.254 34.7235 346.629 35.4077 344.192 35.4077C340.942 35.4077 338.376 33.5261 337.82 30.1478H356.123C356.123 29.6347 356.165 29.3781 356.165 28.8649C356.165 21.6807 351.29 16.5491 344.106 16.5491C336.794 16.5491 332.303 22.2794 332.303 28.4801C332.303 35.1512 336.965 40.4538 344.192 40.4538C348.981 40.4538 352.188 38.9143 354.626 35.4505L349.836 33.184ZM338.077 25.6577C339.188 22.7925 341.369 21.3813 344.192 21.3813C347.228 21.3813 349.665 23.0063 350.435 25.6577H338.077Z" fill="#424242"/>
<path d="M198.751 39.8551H204.439V17.1477H198.751V19.628C196.699 17.5754 194.347 16.5491 191.61 16.5491C185.709 16.5491 180.919 21.4241 180.919 28.5228C180.919 35.4933 185.965 40.4538 191.738 40.4538C194.603 40.4538 196.742 39.4275 198.751 37.4604V39.8551ZM192.765 21.7662C196.357 21.7662 199.008 24.4603 199.008 28.4373C199.008 32.5854 196.271 35.2367 192.765 35.2367C189.215 35.2367 186.649 32.3715 186.649 28.4801C186.649 24.7596 189.001 21.7662 192.765 21.7662Z" fill="#787878"/>
<path d="M215.864 17.1477H210.176V39.8551H215.864V30.1906C215.864 27.8386 215.821 25.786 216.975 23.9471C217.873 22.5359 219.242 21.7662 220.824 21.7662C224.288 21.7662 224.673 24.6313 224.673 29.1215V39.8551H230.36V24.332C230.36 19.457 226.811 16.5491 222.577 16.5491C220.054 16.5491 218.044 17.6181 215.864 19.457V17.1477Z" fill="#787878"/>
<path d="M252.623 39.8551H258.311V8.38123H252.623V19.628C250.571 17.5754 248.219 16.5491 245.482 16.5491C239.581 16.5491 234.791 21.4241 234.791 28.5228C234.791 35.4933 239.837 40.4538 245.61 40.4538C248.475 40.4538 250.613 39.4275 252.623 37.4604V39.8551ZM246.637 21.7662C250.229 21.7662 252.88 24.4603 252.88 28.4373C252.88 32.5854 250.143 35.2367 246.637 35.2367C243.087 35.2367 240.521 32.3715 240.521 28.4801C240.521 24.7596 242.873 21.7662 246.637 21.7662Z" fill="#787878"/>
<path d="M91.966 17.1482H89.0581V22.0232H91.966V39.8556H97.6536V22.0232H101.032V17.1482H97.6536V8.76652H91.966V17.1482Z" fill="#424242"/>
<path d="M103.547 39.8556H109.234V17.1482H103.547V39.8556ZM106.369 7.78296C104.402 7.78296 102.734 9.27968 102.734 11.2468C102.734 13.3422 104.274 15.181 106.369 15.181C108.379 15.181 110.004 13.556 110.004 11.5461C110.004 9.4935 108.422 7.78296 106.369 7.78296Z" fill="#424242"/>
<path d="M134.646 28.6515C134.646 23.9903 136.698 21.7666 139.563 21.7666C142.129 21.7666 143.455 23.6054 143.455 27.3259V39.8556H149.142V26.5561C149.142 23.5627 148.971 21.0824 147.475 19.2008C146.192 17.5758 143.925 16.5495 141.402 16.5495C137.981 16.5495 135.886 17.9607 133.79 20.612C132.379 17.8751 129.984 16.5495 127.162 16.5495C124.468 16.5495 121.988 17.6613 120.063 19.7567V17.1482H114.376V39.8556H120.063V28.7371C120.063 24.0758 122.116 21.7666 124.938 21.7666C128.103 21.7666 128.958 24.4607 128.958 28.8654V39.8556H134.646V28.6515Z" fill="#424242"/>
<path d="M171.098 33.1845C169.516 34.724 167.891 35.4082 165.454 35.4082C162.204 35.4082 159.638 33.5266 159.082 30.1483H177.385C177.385 29.6351 177.427 29.3785 177.427 28.8654C177.427 21.6811 172.552 16.5495 165.368 16.5495C158.056 16.5495 153.565 22.2798 153.565 28.4805C153.565 35.1516 158.227 40.4543 165.454 40.4543C170.243 40.4543 173.45 38.9148 175.888 35.4509L171.098 33.1845ZM159.339 25.6581C160.45 22.7929 162.631 21.3817 165.454 21.3817C168.49 21.3817 170.927 23.0068 171.697 25.6581H159.339Z" fill="#424242"/>
<path fill-rule="evenodd" clip-rule="evenodd" d="M18.1696 31.4914L16.3706 37.0281C16.3023 37.2546 16.1901 37.4655 16.0404 37.6486C15.8907 37.8318 15.7064 37.9836 15.4981 38.0955C15.2898 38.2074 15.0615 38.2771 14.8263 38.3007C14.5911 38.3243 14.3535 38.3013 14.1273 38.2329L2.41418 34.4271C2.19098 34.3494 1.98529 34.2284 1.80887 34.0711C1.63244 33.9138 1.48874 33.7232 1.38596 33.5102C1.28319 33.2972 1.22336 33.0661 1.20989 32.8299C1.19642 32.5937 1.22958 32.3572 1.30747 32.1338L3.10646 26.5971C3.24447 26.1393 3.55836 25.755 3.97916 25.5285C4.39997 25.3021 4.89329 25.252 5.35077 25.3892L17.0639 29.1951C17.5147 29.3529 17.8843 29.6834 18.0916 30.114C18.299 30.5445 18.327 31.0399 18.1696 31.4914Z" fill="#1F9DD8"/>
<path fill-rule="evenodd" clip-rule="evenodd" d="M28.8301 19.8771L24.1203 23.299C23.9319 23.4421 23.7172 23.5467 23.4884 23.6069C23.2596 23.6671 23.0213 23.6816 22.787 23.6497C22.5527 23.6177 22.327 23.54 22.1228 23.4208C21.9187 23.3016 21.7401 23.1434 21.5972 22.9551L14.3581 12.9914C14.2232 12.7973 14.1279 12.5785 14.0777 12.3475C14.0274 12.1165 14.0232 11.8779 14.0652 11.6452C14.1072 11.4125 14.1947 11.1903 14.3226 10.9913C14.4505 10.7923 14.6164 10.6205 14.8107 10.4855L19.5205 7.06363C19.9013 6.77442 20.3811 6.64799 20.8546 6.71212C21.3282 6.77624 21.7568 7.02568 22.0462 7.40563L29.2853 17.3694C29.5572 17.7621 29.662 18.2467 29.5766 18.7169C29.4913 19.1871 29.2228 19.6044 28.8301 19.8771Z" fill="#78B942"/>
<path fill-rule="evenodd" clip-rule="evenodd" d="M44.2811 16.7474H38.4594C38.2229 16.7525 37.9877 16.7109 37.7673 16.6251C37.5468 16.5393 37.3454 16.411 37.1747 16.2474C37.0039 16.0839 36.867 15.8883 36.7719 15.6719C36.6768 15.4555 36.6253 15.2225 36.6204 14.9862V2.67032C36.6253 2.43403 36.6768 2.20102 36.7719 1.98462C36.867 1.76821 37.0039 1.57264 37.1747 1.40909C37.3454 1.24553 37.5468 1.11719 37.7673 1.03141C37.9877 0.945617 38.2229 0.904058 38.4594 0.909103H44.2811C44.7591 0.898907 45.2216 1.07867 45.567 1.40889C45.9124 1.73912 46.1125 2.19282 46.1234 2.67032V14.9862C46.1125 15.4637 45.9124 15.9174 45.567 16.2476C45.2216 16.5779 44.7591 16.7576 44.2811 16.7474Z" fill="#FFC807"/>
<path fill-rule="evenodd" clip-rule="evenodd" d="M58.6212 23.2973L53.9114 19.8754C53.717 19.7404 53.5512 19.5686 53.4233 19.3696C53.2953 19.1706 53.2079 18.9484 53.1658 18.7157C53.1238 18.483 53.128 18.2443 53.1783 18.0134C53.2285 17.7824 53.3238 17.5636 53.4587 17.3695L60.6978 7.40578C60.8407 7.21752 61.0193 7.05928 61.2235 6.94011C61.4276 6.82094 61.6533 6.74316 61.8876 6.71123C62.1219 6.6793 62.3602 6.69383 62.589 6.754C62.8178 6.81417 63.0325 6.9188 63.2209 7.06191L67.9307 10.4838C68.3234 10.7565 68.5919 11.1738 68.6773 11.644C68.7626 12.1142 68.6578 12.5988 68.3859 12.9915L61.1468 22.9553C60.8574 23.3352 60.4288 23.5846 59.9553 23.6488C59.4817 23.7129 59.0019 23.5865 58.6212 23.2973Z" fill="#EA7723"/>
<path fill-rule="evenodd" clip-rule="evenodd" d="M66.3724 37.0248L64.5734 31.4881C64.4955 31.2647 64.4623 31.0282 64.4758 30.792C64.4893 30.5558 64.5491 30.3247 64.6519 30.1117C64.7546 29.8987 64.8984 29.7082 65.0748 29.5508C65.2512 29.3935 65.4569 29.2725 65.6801 29.1948L77.3932 25.389C77.6194 25.3207 77.857 25.2976 78.0922 25.3212C78.3274 25.3448 78.5557 25.4145 78.764 25.5264C78.9723 25.6383 79.1566 25.7901 79.3063 25.9733C79.456 26.1564 79.5682 26.3673 79.6365 26.5938L81.4355 32.1305C81.5929 32.582 81.5649 33.0774 81.3576 33.508C81.1502 33.9385 80.7806 34.269 80.3298 34.4269L68.6167 38.2327C68.1592 38.37 67.6659 38.3199 67.2451 38.0934C66.8243 37.8669 66.5104 37.4826 66.3724 37.0248Z" fill="#EC1C66"/>
<path fill-rule="evenodd" clip-rule="evenodd" d="M28.1343 28.4705C29.3366 27.4593 31.131 27.6142 32.1422 28.8165L41.3799 39.8L46.4931 33.6405C47.4965 32.4317 49.2899 32.2653 50.4987 33.2687C51.7075 34.2722 51.8739 36.0656 50.8705 37.2743L43.5828 46.0531C43.0445 46.7017 42.2462 47.0781 41.4033 47.0808C40.5604 47.0835 39.7597 46.7122 39.2172 46.0672L27.7883 32.4784C26.7771 31.2761 26.932 29.4817 28.1343 28.4705Z" fill="#424242"/>
</svg>
