<svg width="64" height="64" viewBox="0 0 64 64" xmlns="http://www.w3.org/2000/svg"><g fill="none" fill-rule="evenodd"><path d="M31.815 0L8.087 9.905C2.076 29.665 8.77 55.455 31.815 64c23.045-8.544 29.74-34.335 23.728-54.095L31.815 0z" fill="#E55182" fill-rule="nonzero"/><path d="M31.815 0v64c23.045-8.544 29.74-34.335 23.728-54.095L31.815 0z" fill-opacity=".1" fill="#000" fill-rule="nonzero"/><path d="M31.815 44.284l-1.936-1.775c-2.926-2.646-4.948-4.54-6.067-5.68-1.828-1.85-3.151-3.495-3.969-4.937-.968-1.635-1.452-3.27-1.452-4.904 0-1.356.328-2.598.984-3.727a7.185 7.185 0 0 1 2.663-2.663c1.118-.645 2.366-.968 3.743-.968 1.14 0 2.248.258 3.324.775a8.113 8.113 0 0 1 2.71 2.065 8.113 8.113 0 0 1 2.71-2.065 7.666 7.666 0 0 1 3.357-.775c1.355 0 2.597.323 3.727.968a7.03 7.03 0 0 1 2.662 2.663c.645 1.129.968 2.371.968 3.727 0 1.635-.473 3.28-1.42 4.937-.839 1.441-2.173 3.087-4.001 4.937-1.14 1.183-3.152 3.087-6.034 5.711l-1.969 1.71z" fill="#FFF"/></g></svg>